<?xml version="1.0" standalone="no"?>
<!DOCTYPE svg PUBLIC "-//W3C//DTD SVG 20010904//EN"
 "http://www.w3.org/TR/2001/REC-SVG-20010904/DTD/svg10.dtd">
<svg version="1.0" xmlns="http://www.w3.org/2000/svg"
 width="300.000000pt" height="94.000000pt" viewBox="0 0 300.000000 94.000000"
 preserveAspectRatio="xMidYMid meet">
<metadata>
Created by potrace 1.10, written by Peter Selinger 2001-2011
</metadata>
<g transform="translate(0.000000,94.000000) scale(0.100000,-0.100000)"
fill="#4445c6" stroke="none">
<path d="M636 893 c-9 -39 -59 -87 -118 -113 -27 -11 -48 -25 -48 -30 0 -14 8
-13 77 11 78 26 113 57 113 101 0 48 -16 68 -24 31z"/>
<path d="M441 810 c-23 -50 -57 -137 -75 -193 l-34 -102 -47 -3 c-47 -3 -47
-3 -41 25 10 40 72 127 102 143 14 8 30 22 35 32 14 26 -11 23 -77 -9 -64 -31
-128 -96 -155 -159 -17 -37 -24 -44 -49 -44 -16 0 -32 -4 -35 -10 -4 -6 8 -10
29 -10 34 0 36 -2 36 -32 1 -99 87 -183 206 -203 50 -8 69 10 20 19 -69 13
-125 88 -126 169 l0 37 50 0 c38 0 50 -4 50 -15 0 -22 31 -92 36 -80 1 6 8 29
14 53 10 39 14 43 38 40 24 -3 27 -7 25 -35 -2 -26 -60 -281 -80 -348 -3 -14
-2 -17 5 -10 17 17 102 224 126 309 l24 81 103 6 c57 4 127 7 154 8 94 3 23
20 -116 28 l-134 8 -15 43 c-8 23 -17 42 -21 42 -4 0 -9 -18 -13 -39 -3 -21
-12 -41 -20 -44 -23 -9 -51 -1 -50 14 1 16 38 181 65 289 10 41 17 76 15 77
-2 2 -22 -37 -45 -87z"/>
<path d="M1185 801 c-3 -6 5 -15 19 -21 l26 -10 0 -160 c0 -134 2 -160 15
-160 23 0 35 34 35 99 l0 60 37 3 c27 2 39 8 41 21 3 14 -4 17 -37 17 l-40 0
-3 78 -3 77 -42 3 c-22 2 -44 -2 -48 -7z"/>
<path d="M1710 799 c0 -6 9 -13 19 -16 26 -7 32 -39 30 -155 -1 -54 1 -101 4
-105 4 -3 13 0 22 7 12 10 15 39 15 146 l0 134 -45 0 c-26 0 -45 -5 -45 -11z"/>
<path d="M2720 801 c0 -6 9 -15 20 -21 19 -10 20 -21 20 -211 l0 -200 23 3 22
3 0 215 0 215 -42 3 c-25 2 -43 -1 -43 -7z"/>
<path d="M960 786 c0 -24 55 -48 103 -44 60 4 58 31 -3 39 -25 3 -57 9 -72 13
-22 7 -28 5 -28 -8z"/>
<path d="M2504 789 c-13 -21 35 -49 83 -49 37 0 44 3 41 17 -2 13 -17 20 -50
24 -26 4 -51 10 -57 13 -5 4 -13 1 -17 -5z"/>
<path d="M1600 770 c-13 -8 -12 -11 4 -23 12 -9 17 -20 13 -31 -5 -14 -17 -16
-59 -14 -49 3 -53 5 -56 31 -3 22 -8 27 -32 27 -33 0 -49 -17 -26 -26 13 -5
16 -24 16 -96 0 -78 2 -89 16 -84 9 3 54 6 100 6 l84 0 0 104 c0 85 -3 105
-16 110 -21 8 -26 7 -44 -4z m20 -140 c0 -30 0 -30 -60 -30 -60 0 -60 0 -60
30 0 30 0 30 60 30 60 0 60 0 60 -30z"/>
<path d="M2005 750 c-14 -23 11 -30 117 -30 l111 0 -7 -101 c-5 -79 -3 -100 6
-97 20 7 36 66 39 153 l4 80 -132 3 c-82 2 -134 -1 -138 -8z"/>
<path d="M910 695 c0 -10 10 -15 30 -15 29 0 40 -13 21 -24 -17 -11 -22 -59
-10 -88 21 -52 92 -73 148 -43 64 33 51 135 -18 135 l-22 0 22 -29 c21 -29 21
-31 5 -55 -22 -35 -60 -34 -83 0 -15 24 -15 29 -2 53 20 36 55 51 117 51 39 0
52 4 52 15 0 13 -21 15 -130 15 -109 0 -130 -2 -130 -15z"/>
<path d="M2447 703 c-12 -11 14 -33 39 -33 23 0 23 -1 7 -29 -14 -24 -15 -32
-3 -60 7 -18 26 -39 41 -47 17 -8 29 -23 29 -34 0 -16 -8 -19 -57 -22 -46 -2
-59 -7 -61 -20 -3 -16 8 -18 120 -17 129 1 169 7 175 26 3 8 -17 13 -64 15
-54 2 -68 6 -71 20 -2 11 8 23 27 33 52 26 55 109 5 121 -32 8 -43 -2 -19 -20
26 -19 13 -64 -22 -72 -34 -9 -57 6 -61 40 -5 44 22 66 84 66 62 0 84 7 84 26
0 11 -25 14 -123 14 -68 0 -127 -3 -130 -7z"/>
<path d="M2120 612 c0 -6 7 -12 15 -16 11 -4 15 -22 15 -71 l0 -65 -30 0 -30
0 0 75 0 75 -35 0 c-34 0 -46 -12 -25 -25 6 -3 10 -33 10 -65 l0 -59 -52 -3
c-39 -2 -53 -7 -53 -18 0 -13 31 -15 204 -18 141 -2 208 1 217 9 25 21 4 29
-76 29 l-79 0 -3 78 -3 77 -37 3 c-21 2 -38 -1 -38 -6z"/>
<path d="M1600 531 c0 -16 33 -30 78 -32 43 -3 62 5 46 20 -14 14 -124 24
-124 12z"/>
<path d="M1000 470 c0 -5 9 -14 20 -20 15 -8 20 -21 20 -54 0 -31 5 -46 16
-50 29 -11 232 -7 240 5 12 20 -20 29 -113 29 l-93 0 0 34 c0 56 -8 66 -51 66
-21 0 -39 -4 -39 -10z"/>
<path d="M1561 466 c-17 -21 -2 -26 71 -26 37 0 68 -4 68 -9 0 -9 -100 -61
-142 -75 -22 -7 -24 -26 -3 -26 8 0 44 10 80 21 l65 22 51 -22 c34 -15 55 -19
61 -13 16 16 1 30 -42 43 -46 14 -48 19 -20 44 20 18 27 45 13 45 -156 8 -193
8 -202 -4z"/>
<path d="M603 438 c-5 -7 -15 -25 -22 -39 -7 -15 -36 -51 -64 -80 -29 -29 -46
-54 -40 -56 19 -7 96 31 137 68 33 29 86 99 86 114 0 11 -88 4 -97 -7z"/>
<path d="M1427 193 c-4 -3 -7 -28 -7 -55 0 -40 3 -48 18 -48 10 0 26 6 36 13
15 11 16 18 8 34 -6 11 -9 23 -5 26 3 4 0 13 -7 22 -13 16 -32 20 -43 8z m37
-22 c3 -5 -1 -12 -10 -15 -22 -9 -24 -8 -24 9 0 16 25 21 34 6z m6 -46 c0 -8
-9 -15 -20 -15 -11 0 -20 7 -20 15 0 8 9 15 20 15 11 0 20 -7 20 -15z"/>
<path d="M1690 190 c0 -5 7 -10 14 -10 11 0 16 -14 19 -47 l3 -48 2 48 c2 34
6 47 17 47 8 0 15 5 15 10 0 6 -16 10 -35 10 -19 0 -35 -4 -35 -10z"/>
<path d="M1985 184 c-26 -26 -16 -77 18 -88 19 -7 31 -6 40 3 10 10 9 12 -3
11 -31 -5 -48 1 -54 16 -11 28 3 54 30 54 13 0 24 5 24 10 0 16 -37 12 -55 -6z"/>
<path d="M2497 193 c-11 -10 -8 -93 3 -93 6 0 10 7 10 15 0 8 5 15 10 15 6 0
13 -7 16 -15 4 -8 10 -15 16 -15 5 0 5 6 0 17 -7 11 -6 23 2 35 9 16 7 22 -8
34 -21 15 -39 18 -49 7z m46 -28 c1 -5 -6 -11 -15 -13 -11 -2 -18 3 -18 13 0
17 30 18 33 0z"/>
<path d="M2670 180 c-11 -11 -20 -27 -20 -35 0 -22 37 -55 60 -55 30 0 24 18
-7 22 -24 3 -28 8 -28 33 0 25 4 30 28 33 15 2 25 8 22 13 -10 15 -34 10 -55
-11z"/>
<path d="M890 145 c0 -25 5 -45 10 -45 6 0 10 9 10 20 0 15 7 20 24 20 19 0
26 -6 29 -27 2 -16 4 -3 4 27 0 30 -2 45 -4 33 -6 -31 -53 -33 -53 -3 0 11 -4
20 -10 20 -5 0 -10 -20 -10 -45z"/>
<path d="M1090 165 c-5 -14 -12 -38 -16 -53 -4 -23 -3 -24 6 -9 14 22 46 22
54 1 4 -9 9 -15 11 -12 8 7 -26 98 -36 98 -5 0 -14 -11 -19 -25z m24 -10 c3
-8 1 -15 -4 -15 -6 0 -10 7 -10 15 0 8 2 15 4 15 2 0 6 -7 10 -15z"/>
<path d="M1242 138 c1 -44 2 -46 5 -15 2 20 8 37 14 37 5 0 9 -3 9 -7 0 -5 11
-21 25 -38 l24 -30 -1 55 c-1 52 -1 53 -7 15 l-6 -40 -23 38 c-13 20 -28 37
-33 37 -5 0 -8 -24 -7 -52z"/>
<path d="M1580 145 c0 -25 5 -45 10 -45 6 0 10 20 10 45 0 25 -4 45 -10 45 -5
0 -10 -20 -10 -45z"/>
<path d="M2143 140 c0 -30 2 -43 4 -27 3 21 10 27 29 27 17 0 24 -5 24 -20 0
-11 5 -20 10 -20 6 0 10 20 10 45 0 25 -4 45 -10 45 -5 0 -10 -9 -10 -20 0
-30 -47 -28 -53 3 -2 12 -4 -3 -4 -33z"/>
<path d="M2322 149 c-2 -35 2 -48 14 -53 24 -9 31 -8 48 10 18 17 22 84 6 84
-5 0 -10 -18 -10 -39 0 -67 -46 -64 -53 4 l-4 40 -1 -46z"/>
<path d="M2820 145 c0 -25 5 -45 10 -45 6 0 10 9 10 20 0 15 7 20 25 20 20 0
25 -5 25 -25 0 -14 5 -25 10 -25 6 0 10 23 10 50 0 28 -4 50 -10 50 -5 0 -10
-9 -10 -20 0 -15 -7 -20 -25 -20 -18 0 -25 5 -25 20 0 11 -4 20 -10 20 -5 0
-10 -20 -10 -45z"/>
</g>
</svg>
